<?xml version="1.0" encoding="utf-8"?>
<!-- Generator: Adobe Illustrator 23.0.6, SVG Export Plug-In . SVG Version: 6.00 Build 0)  -->
<svg version="1.1"
	 id="svg3735" xmlns:cc="http://creativecommons.org/ns#" xmlns:dc="http://purl.org/dc/elements/1.1/" xmlns:inkscape="http://www.inkscape.org/namespaces/inkscape" xmlns:rdf="http://www.w3.org/1999/02/22-rdf-syntax-ns#" xmlns:sodipodi="http://sodipodi.sourceforge.net/DTD/sodipodi-0.dtd" xmlns:svg="http://www.w3.org/2000/svg"
	 xmlns="http://www.w3.org/2000/svg" xmlns:xlink="http://www.w3.org/1999/xlink" x="0px" y="0px" viewBox="0 0 274.1 350"
	 style="enable-background:new 0 0 274.1 350;" xml:space="preserve">
<style type="text/css">
	.st0{fill:#9C9E9F;}
	.st1{fill:#75C828;}
	.st2{fill:#C81164;}
	.st3{fill:#FFFFFF;stroke:#000000;stroke-miterlimit:10;}
	.st4{font-family:'RobotoCondensed-Bold';}
	.st5{font-size:74px;}
</style>
<sodipodi:namedview  bordercolor="#666666" borderopacity="1.0" fit-margin-bottom="0" fit-margin-left="0" fit-margin-right="0" fit-margin-top="0" id="base" inkscape:current-layer="layer1" inkscape:cx="309.80578" inkscape:cy="186.02077" inkscape:document-units="mm" inkscape:pagecheckerboard="true" inkscape:pageopacity="0.0" inkscape:pageshadow="2" inkscape:window-height="1017" inkscape:window-maximized="1" inkscape:window-width="1920" inkscape:window-x="-8" inkscape:window-y="-8" inkscape:zoom="1.4142136" pagecolor="#ffffff" showgrid="false" units="px">
	</sodipodi:namedview>
<g id="layer1" transform="translate(12.155971,-134.28278)" inkscape:groupmode="layer" inkscape:label="Layer 1">
	<g id="g3787" transform="matrix(0.12938496,0,0,0.12938496,-13.018439,134.06988)">
		<path id="path3737" inkscape:connector-curvature="0" class="st0" d="M614.8,98.3c-12.7,0.4-26.4,5.1-41.9,17.3
			c-38-14.7-74.9-19.7-107.8,10.1c-50.9-6.6-67.4,7-80,22.9c-11.2-0.2-83.6-11.5-116.8,38.1c-83.5-9.9-109.8,49.1-80,104.1
			c-17,26.4-34.7,52.5,5.2,102.8c-14.1,28-5.4,58.4,27.9,95.2c-8.8,39.4,8.5,67.2,39.4,88.8c-5.8,53.9,49.4,85.2,65.9,96.4
			c6.3,31.4,19.5,61,82.6,77.4c10.4,46.8,48.3,54.9,85,64.7C372.9,886.6,268.9,979.4,269.6,1207l-17.8,31.7
			c-139.1,84.6-264.2,356.4-68.5,577.4c12.8,69.2,34.2,118.8,53.3,173.8c28.5,221.6,214.8,325.3,264,337.6
			c72,54.8,148.7,106.9,252.5,143.3c97.8,100.9,203.8,139.4,310.4,139.3c1.6,0,3.2,0,4.7,0c106.6,0.1,212.5-38.4,310.4-139.3
			c103.8-36.5,180.5-88.5,252.5-143.3c49.1-12.3,235.4-116,264-337.6c19.1-55,40.5-104.7,53.3-173.8
			c195.7-221,70.5-492.8-68.5-577.4L1862,1207c0.7-227.6-103.3-320.4-224.6-390.9c36.7-9.8,74.6-17.9,85-64.7
			c63.1-16.4,76.3-46,82.6-77.4c16.5-11.2,71.7-42.5,65.9-96.4c30.9-21.7,48.1-49.4,39.4-88.8c33.2-36.8,42-67.2,27.9-95.2
			c39.9-50.3,22.2-76.4,5.2-102.7c29.9-55,3.5-114-80-104.1c-33.2-49.5-105.6-38.3-116.8-38.1c-12.5-15.9-29.1-29.5-79.9-22.9
			c-33-29.8-69.8-24.7-107.8-10.1c-45.1-35.6-75-7.1-109.1,3.7c-54.6-17.9-67.1,6.6-94,16.6c-59.6-12.6-77.7,14.8-106.3,43.8
			l-33.2-0.7c-89.9,53-134.5,160.8-150.4,216.3c-15.8-55.5-60.4-163.3-150.3-216.3l-33.2,0.7c-28.6-28.9-46.7-56.4-106.3-43.8
			c-26.8-10-39.3-34.4-94-16.6C659.6,112.3,639,97.5,614.8,98.3L614.8,98.3z"/>
		<path id="path3739" inkscape:connector-curvature="0" class="st1" d="M435.8,331.3c238.5,122.9,377.1,222.4,453,307.1
			c-38.9,155.9-241.8,163-316,158.6c15.2-7.1,27.9-15.5,32.4-28.6c-18.6-13.2-84.6-1.4-130.7-27.3c17.7-3.7,26-7.2,34.3-20.3
			c-43.5-13.9-90.4-25.9-118-48.9c14.9,0.2,28.8,3.3,48.2-10.2c-39-21-80.6-37.7-112.9-69.8c20.2-0.5,41.9-0.2,48.2-7.6
			c-35.7-22.1-65.8-46.7-90.7-73.6c28.2,3.4,40.1,0.5,47-4.4c-27-27.6-61.1-51-77.4-85c21,7.2,40.1,10,53.9-0.6
			c-9.2-20.7-48.4-32.9-71.1-81.2c22.1,2.1,45.4,4.8,50.1,0c-10.2-41.7-27.8-65.2-45-89.4c47.2-0.7,118.7,0.2,115.5-3.8l-29.2-29.8
			c46.1-12.4,93.3,2,127.5,12.7c15.4-12.1-0.3-27.5-19-43.1c39.2,5.2,74.6,14.2,106.6,26.6c17.1-15.4-11.1-30.9-24.7-46.3
			c60.5,11.5,86.2,27.6,111.7,43.8c18.5-17.7,1.1-32.8-11.4-48.2c45.6,16.9,69.2,38.7,93.9,60.3c8.4-11.3,21.3-19.6,5.7-47
			c32.4,18.7,56.8,40.7,74.9,65.4c20.1-12.8,11.9-30.2,12.1-46.3c33.7,27.4,55.1,56.6,81.2,85c5.3-3.8,9.9-16.9,14-37.4
			c80.4,78,193.9,274.3,29.2,352.1C788.7,478.4,621.3,394.4,435.8,331.3L435.8,331.3z"/>
		<path id="path3741" inkscape:connector-curvature="0" class="st1" d="M1701.1,331.3c-238.4,123-377.1,222.4-453,307.1
			c38.9,155.9,241.8,163,316,158.6c-15.2-7.1-27.9-15.5-32.4-28.6c18.6-13.2,84.6-1.4,130.7-27.3c-17.7-3.7-26-7.2-34.3-20.3
			c43.5-13.9,90.4-25.9,118-48.9c-14.9,0.2-28.8,3.3-48.2-10.2c39-21,80.6-37.7,112.9-69.8c-20.2-0.5-41.9-0.2-48.2-7.6
			c35.7-22.1,65.8-46.7,90.7-73.6c-28.2,3.4-40.1,0.5-47-4.4c27-27.6,61.1-51,77.4-85c-21,7.2-40.1,10-53.9-0.6
			c9.2-20.7,48.4-32.9,71.1-81.2c-22.1,2.1-45.4,4.8-50.1,0c10.3-41.7,27.8-65.2,45-89.5c-47.2-0.7-118.7,0.2-115.5-3.8l29.2-29.8
			c-46.1-12.4-93.3,2-127.5,12.7c-15.4-12.1,0.3-27.5,19-43.1c-39.2,5.2-74.6,14.2-106.6,26.6c-17.1-15.4,11.1-30.9,24.7-46.3
			c-60.5,11.5-86.2,27.6-111.7,43.8c-18.5-17.7-1.1-32.8,11.4-48.2c-45.6,16.9-69.2,38.7-93.9,60.3c-8.4-11.3-21.3-19.6-5.7-47
			c-32.4,18.7-56.8,40.7-74.9,65.4c-20.1-12.8-11.9-30.2-12.1-46.3c-33.7,27.4-55.1,56.6-81.2,85c-5.3-3.8-9.9-16.9-14-37.4
			c-80.4,78-193.9,274.3-29.2,352.1C1348.2,478.4,1515.6,394.4,1701.1,331.3L1701.1,331.3z"/>
		<path id="path3743" inkscape:connector-curvature="0" class="st2" d="M1357.3,1918.7c0.8,145.5-126.4,264-284.1,264.8
			c-157.8,0.8-286.3-116.5-287.1-262c0-0.9,0-1.9,0-2.8c-0.8-145.5,126.4-264,284.1-264.8c157.8-0.8,286.3,116.5,287.1,262
			C1357.3,1916.9,1357.3,1917.8,1357.3,1918.7z"/>
		<path id="path3745" inkscape:connector-curvature="0" class="st2" d="M906.3,1166.3c118.4,77.5,139.7,253.3,47.7,392.6
			s-262.6,189.3-381,111.8l0,0c-118.4-77.5-139.7-253.3-47.7-392.6S788,1088.7,906.3,1166.3L906.3,1166.3z"/>
		<path id="path3747" inkscape:connector-curvature="0" class="st2" d="M1225.8,1152.3c-118.4,77.5-139.7,253.3-47.7,392.6
			c92,139.3,262.6,189.3,381,111.8l0,0c118.4-77.5,139.7-253.3,47.7-392.6C1514.7,1124.8,1344.1,1074.7,1225.8,1152.3L1225.8,1152.3
			z"/>
		<path id="path3749" inkscape:connector-curvature="0" class="st2" d="M314.8,1293.1c127.8-34.3,43.1,528.6-60.8,482.5
			C139.6,1683.5,102.8,1414.1,314.8,1293.1z"/>
		<path id="path3751" inkscape:connector-curvature="0" class="st2" d="M1791.5,1286c-127.8-34.2-43.1,528.7,60.8,482.5
			C1966.7,1676.5,2003.6,1407.1,1791.5,1286z"/>
		<path id="path3753" inkscape:connector-curvature="0" class="st2" d="M1357.4,866.9c220.5-37.2,404,93.8,396.6,332.9
			C1746.7,1291.4,1276.1,880.5,1357.4,866.9z"/>
		<path id="path3755" inkscape:connector-curvature="0" class="st2" d="M748.1,859.8c-220.5-37.2-404,93.8-396.6,332.9
			C358.7,1284.4,829.3,873.5,748.1,859.8z"/>
		<path id="path3757" inkscape:connector-curvature="0" class="st2" d="M1064.8,804.1c-131.6-3.4-257.9,97.7-258.2,156.3
			c-0.4,71.3,104.1,144.2,259.1,146.1c158.4,1.1,259.4-58.4,259.9-131.9C1326.2,891.2,1181.6,802.8,1064.8,804.1L1064.8,804.1z"/>
		<path id="path3759" inkscape:connector-curvature="0" class="st2" d="M1072.9,2265.3c114.8-5,268.7,37,269,92.6
			c1.9,54.1-139.6,176.2-276.6,173.9c-141.9,6.1-281-116.2-279.2-158.6C783.9,2311,958.8,2262.5,1072.9,2265.3L1072.9,2265.3z"/>
		<path id="path3761" inkscape:connector-curvature="0" class="st2" d="M649,1935.4c81.7,98.4,118.9,271.4,50.8,322.3
			c-64.5,38.9-221.1,22.9-332.5-137.1c-75.1-134.2-65.4-270.8-12.7-310.9C433.5,1761.7,555.3,1826.6,649,1935.4L649,1935.4z"/>
		<path id="path3763" inkscape:connector-curvature="0" class="st2" d="M1480.4,1904.2c-88.4,103.5-137.6,292.4-73.1,353.2
			c61.7,47.3,227.2,40.6,349.4-129c88.8-113.9,59-304.2,8.3-354.7C1689.7,1715.3,1581.5,1789.9,1480.4,1904.2L1480.4,1904.2z"/>
	</g>
</g>
<text transform="matrix(1 0 0 1 19.0751 227.1237)" class="st3 st4 st5">PiSense</text>
</svg>
